<?xml version="1.0" encoding="UTF-8"?>
<svg width="583px" height="143px" viewBox="0 0 583 143" version="1.1"
    xmlns="http://www.w3.org/2000/svg" xmlns:xlink="http://www.w3.org/1999/xlink">
    <!-- Generator: Sketch 43.1 (39012) - http://www.bohemiancoding.com/sketch -->
    <title>CBSL-Logo-2017-Black</title>
    <desc>Created with Sketch.</desc>
    <defs></defs>
    <g id="Symbols" stroke="none" stroke-width="1" fill="none" fill-rule="evenodd">
        <g id="CBSL-Logo-2017-Black">
            <path
                d="M254.5124,84.3100469 L257.573935,93.6816294 C255.091466,95.6720343 250.374957,98.3270447 244.085718,98.3270447 C230.599186,98.3270447 221,88.8713334 221,75.6838045 C221,62.4962755 230.847598,52.7915547 244.003476,52.7915547 C250.374957,52.7915547 254.843054,55.2799959 257.656177,57.43697 L254.428473,67.057562 C252.526755,65.3161666 249.216808,62.9101658 244.33413,62.9101658 C236.970668,62.9101658 232.418645,68.6340767 232.418645,75.6013469 C232.418645,82.9825245 237.549734,88.2083992 244.748711,88.2083992 C249.132881,88.2084336 252.608997,85.8848731 254.5124,84.3100469 Z M261.377354,37.2804998 L272.795998,37.2804998 L272.795998,97.2485663 L261.377354,97.2485663 L261.377354,37.2804998 Z M300.101401,52.7915719 C313.339521,52.7915719 323.435531,62.5787331 323.435531,75.6838217 C323.435531,88.7889102 313.67186,98.3270619 300.101401,98.3270619 C286.613185,98.3270619 276.849513,88.7889102 276.849513,75.6838217 C276.849513,62.4962928 286.945523,52.7915719 300.101401,52.7915719 Z M300.101401,88.2084336 C306.968039,88.2084336 312.016886,83.0649993 312.016886,75.6838217 C312.016886,68.3009557 306.968039,62.9102002 300.101401,62.9102002 C293.233095,62.9102002 288.268158,68.2185153 288.268158,75.6838217 C288.268158,83.064982 293.315338,88.2084336 300.101401,88.2084336 Z M327.072781,78.917603 L327.072781,53.8700504 L338.491425,53.8700504 L338.491425,80.245091 C338.491425,85.055387 341.801372,88.0418472 345.690402,88.0418472 C350.406911,88.0418472 353.384519,84.5590564 353.384519,79.9136411 L353.384519,53.8700504 L364.803163,53.8700504 L364.803163,97.248549 L353.632931,97.248549 L353.632931,92.1892435 C351.813472,95.1757037 347.67603,98.3270447 342.049784,98.3270447 C329.719734,98.3270447 327.072781,88.1243048 327.072781,78.917603 Z M413.208674,97.2485663 L402.451338,97.2485663 L402.451338,92.7697201 C401.293188,94.1796657 396.991261,98.3270619 389.626132,98.3270619 C377.215507,98.3270619 368.443799,88.953791 368.443799,75.6013813 C368.443799,62.1631717 376.554181,52.7915719 388.964806,52.7915719 C396.412195,52.7915719 400.714122,56.9389682 401.790012,58.4313541 L401.790012,26.4529705 L413.208656,26.4529705 L413.208656,97.2485663 L413.208674,97.2485663 Z M391.032676,62.910183 C384.41445,62.910183 379.946353,68.1360577 379.946353,75.6838045 C379.946353,83.3964319 384.578935,88.2084164 391.032676,88.2084164 C397.983241,88.2084164 402.120666,82.566963 402.120666,75.6838045 C402.120683,67.5555983 397.321915,62.910183 391.032676,62.910183 Z M419.576804,26.4529705 L430.995448,26.4529705 L430.995448,58.4313369 C432.071356,56.938951 436.373283,52.7915547 443.820655,52.7915547 C456.232964,52.7915547 464.341661,62.1631372 464.341661,75.6013641 C464.341661,88.9537737 455.569953,98.3270447 443.159329,98.3270447 C435.794182,98.3270447 431.492255,94.1796484 430.334123,92.7697029 L430.334123,97.248549 L419.576787,97.248549 L419.576787,26.4529705 L419.576804,26.4529705 Z M441.752784,88.2084336 C448.206509,88.2084336 452.839107,83.3964492 452.839107,75.6838217 C452.839107,68.1360749 448.371011,62.9102002 441.752784,62.9102002 C435.463545,62.9102002 430.664794,67.5556155 430.664794,75.6838217 C430.664794,82.566963 434.802219,88.2084336 441.752784,88.2084336 Z M482.625277,69.4635629 C487.011131,69.4635629 490.403321,70.7893796 491.976051,71.8678753 L491.976051,69.0479842 C491.976051,65.2320551 489.162928,62.6611735 484.115766,62.6611735 C479.812154,62.6611735 475.840899,64.071119 472.613194,65.7300741 L468.311267,57.9333178 C472.200297,55.2799959 478.736264,52.7915547 485.356158,52.7915547 C499.257271,52.7915547 503.394713,60.0902919 503.394713,69.7950128 L503.394713,97.248549 L493.300371,97.248549 L492.555135,94.428658 C490.321095,96.8346416 487.011131,98.3270447 482.046211,98.3270447 C473.276187,98.3270447 465.828798,92.936272 465.828798,83.8120278 C465.828798,75.2682258 472.530952,69.4635629 482.625277,69.4635629 Z M484.777092,89.45181 C489.080703,89.45181 492.224481,87.129938 492.224481,83.480578 C492.224481,79.6646488 489.080703,77.4252171 484.694849,77.4252171 C480.308995,77.4252171 477.24746,79.9136583 477.24746,83.480578 C477.24746,87.0458092 480.475164,89.45181 484.777092,89.45181 Z M506.372321,90.2812789 L513.074457,84.3100469 C515.224587,86.7984881 518.12162,89.0379025 523.002631,89.0379025 C526.230335,89.0379025 528.298205,87.627957 528.298205,85.1395158 C528.298205,78.5036955 507.861125,81.0745599 507.861125,65.6476165 C507.861125,57.6018507 514.729431,52.7915547 523.581697,52.7915547 C531.774322,52.7915547 536.324661,57.1038317 538.394215,60.5041822 L530.864584,66.1456355 C529.540265,64.4866805 527.140056,61.9982393 523.08654,61.9982393 C520.437902,61.9982393 518.618444,63.3257445 518.618444,65.4810301 C518.618444,72.3658599 539.137784,69.0479498 539.137784,84.5590219 C539.137784,93.0186952 531.856564,98.3270102 522.507474,98.3270102 C513.984195,98.3270447 508.688621,94.0130965 506.372321,90.2812789 Z M561.560509,52.7915719 C574.964798,52.7915719 582.576672,61.7492642 582.576672,75.9328312 C582.576672,76.7623173 582.576672,77.5917863 582.49443,78.4212724 L552.04525,78.4212724 C552.291977,84.2259353 556.926243,88.3733316 563.297742,88.3733316 C569.1724,88.3733316 572.564589,84.8905407 573.806666,83.0650165 L581.33628,88.788893 C579.681307,91.8577936 573.888891,98.3270447 563.131555,98.3270447 C549.230442,98.3270447 540.378176,88.7047642 540.378176,75.6838045 C540.378193,62.5787331 549.230459,52.7915719 561.560509,52.7915719 Z M570.993543,70.9559488 C570.745131,65.6476337 566.938343,62.1631372 561.725011,62.1631372 C556.347177,62.1631372 552.872745,65.9790664 552.375921,70.9559488 L570.993543,70.9559488 Z M439.327395,42.5837667 L442.286544,39.9472775 C443.234885,41.0459654 444.513881,42.0335958 446.669029,42.0335958 C448.09405,42.0335958 449.00714,41.4110634 449.00714,40.3123927 C449.00714,37.3831324 439.983668,38.5188281 439.983668,31.7063425 C439.983668,28.1545671 443.016672,26.0312239 446.925829,26.0312239 C450.542935,26.0312239 452.552075,27.9341404 453.465164,29.4366224 L450.14011,31.9267348 C449.556007,31.1948505 448.496892,30.0961625 446.705948,30.0961625 C445.537727,30.0961625 444.733744,30.68167 444.733744,31.6339811 C444.733744,34.6725933 453.794134,33.2088073 453.794134,40.0566294 C453.794134,43.7918066 450.578186,46.1355422 446.450816,46.1355422 C442.687685,46.1355422 440.349574,44.2309545 439.327395,42.5837667 Z M464.971104,26.0312239 C470.817231,26.0312239 475.273571,30.3519086 475.273571,36.1380676 C475.273571,41.9242266 470.963257,46.1355422 464.971104,46.1355422 C459.015888,46.1355422 454.705556,41.9242094 454.705556,36.1380676 C454.705556,30.3149008 459.163581,26.0312239 464.971104,26.0312239 Z M464.971104,41.6684806 C468.004108,41.6684806 470.233112,39.3970893 470.233112,36.1380676 C470.233112,32.8790459 468.004091,30.4982854 464.971104,30.4982854 C461.939785,30.4982854 459.7477,32.842021 459.7477,36.1380676 C459.7477,39.3970893 461.97502,41.6684806 464.971104,41.6684806 Z M477.427053,19.1817134 L482.46918,19.1817134 L482.46918,45.6594039 L477.427053,45.6594039 L477.427053,19.1817134 Z M485.572687,37.566517 L485.572687,26.5073622 L490.614814,26.5073622 L490.614814,38.1520245 C490.614814,40.2753505 492.076771,41.594448 493.793843,41.594448 C495.875154,41.594448 497.191068,40.0566294 497.191068,38.0056476 L497.191068,26.5073622 L502.231528,26.5073622 L502.231528,45.6594039 L497.300175,45.6594039 L497.300175,43.4250202 C496.496192,44.7441005 494.670013,46.1355422 492.18586,46.1355422 C486.742576,46.1355422 485.572687,41.6314729 485.572687,37.566517 Z M505.774778,22.47776 L510.74305,22.47776 L510.74305,26.5073794 L514.323237,26.5073794 L514.323237,30.6076546 L510.74305,30.6076546 L510.74305,38.0056648 C510.74305,40.8625636 511.620888,41.4480883 513.556173,41.4480883 C513.885161,41.4480883 514.068105,41.4480883 514.470947,41.4110806 L514.470947,45.7334537 C514.470947,45.7334537 513.702199,45.9151671 512.314114,45.9151671 C507.748667,45.9151671 505.739527,43.3527105 505.739527,38.1520589 L505.739527,30.6076718 L503.728719,30.6076718 L503.728719,26.5073966 L505.774778,26.5073966 L505.774778,22.47776 L505.774778,22.47776 Z M519.217671,19 C520.899509,19 522.17682,20.2450648 522.17682,21.8922353 C522.17682,23.5410942 520.899509,24.786159 519.217671,24.786159 C517.574454,24.786159 516.295441,23.5410942 516.295441,21.8922353 C516.295459,20.2450648 517.574454,19 519.217671,19 Z M516.733535,26.5073794 L521.775662,26.5073794 L521.775662,45.6594039 L516.733535,45.6594039 L516.733535,26.5073794 Z M534.231611,26.0312239 C540.077737,26.0312239 544.534077,30.3519086 544.534077,36.1380676 C544.534077,41.9242266 540.223763,46.1355422 534.231611,46.1355422 C528.276394,46.1355422 523.966063,41.9242094 523.966063,36.1380676 C523.96608,30.3149008 528.424104,26.0312239 534.231611,26.0312239 Z M534.231611,41.6684806 C537.264614,41.6684806 539.493618,39.3970893 539.493618,36.1380676 C539.493618,32.8790459 537.264597,30.4982854 534.231611,30.4982854 C531.200291,30.4982854 529.008207,32.842021 529.008207,36.1380676 C529.008207,39.3970893 531.235543,41.6684806 534.231611,41.6684806 Z M563.346417,34.600249 L563.346417,45.6594039 L558.305957,45.6594039 L558.305957,34.0147416 C558.305957,31.8897271 556.844,30.5723181 555.126928,30.5723181 C553.045617,30.5723181 551.729703,32.1101366 551.729703,34.1611184 L551.729703,45.6594039 L546.687576,45.6594039 L546.687576,26.5073794 L551.620614,26.5073794 L551.620614,28.7400746 C552.424596,27.4226655 554.250775,26.0312239 556.734928,26.0312239 C562.178195,26.0312239 563.346417,30.5353104 563.346417,34.600249 Z M565.137344,42.5837667 L568.096493,39.9472775 C569.044834,41.0459654 570.323829,42.0335958 572.478978,42.0335958 C573.903999,42.0335958 574.817088,41.4110634 574.817088,40.3123927 C574.817088,37.3831324 565.793617,38.5188281 565.793617,31.7063425 C565.793617,28.1545671 568.826621,26.0312239 572.735777,26.0312239 C576.352883,26.0312239 578.362024,27.9341404 579.275113,29.4366224 L575.950058,31.9267348 C575.365956,31.1948505 574.306841,30.0961625 572.515897,30.0961625 C571.347675,30.0961625 570.543693,30.68167 570.543693,31.6339811 C570.543693,34.6725933 579.604083,33.2088073 579.604083,40.0566294 C579.604083,43.7918066 576.388135,46.1355422 572.260765,46.1355422 C568.497651,46.1355422 566.15954,44.2309545 565.137344,42.5837667 Z"
                id="Combined-Shape" fill="white"></path>
            <g id="CBSL-LOGO">
                <g id="Group-2">
                    <path
                        d="M190.594142,70.7058547 C190.330931,59.7671127 181.1757,50.5897518 170.263109,50.3260115 C166.81353,50.2426236 163.365207,50.2426236 159.915422,50.3260115 C159.901053,50.326425 159.886581,50.3278033 159.872092,50.3282168 C160.108335,40.3198019 159.929687,30.3182096 159.315266,20.2982341 C158.690137,10.105263 149.89997,1.29384419 139.73136,0.6672113 C125.292602,-0.222524362 110.892878,-0.222317615 96.4542405,0.667314674 C86.2856476,1.29384419 77.495377,10.1053664 76.8703512,20.2984408 C76.7176053,22.7886566 76.6008502,25.2774079 76.500767,27.7658491 C75.085182,27.397805 73.6197702,27.1762412 72.1204817,27.1318595 C67.9313222,27.0078802 63.7442768,27.0024186 59.554911,27.1152508 C50.9259801,27.3476517 43.3505093,33.2661977 40.5233268,41.1631746 C33.7699889,40.9231068 27.0223229,40.9283617 20.2667849,41.2075562 C9.70478579,41.6439474 0.717717583,50.6288614 0.254443963,61.215117 C-0.0745432127,68.7298359 -0.0844948127,76.2354235 0.224537601,83.75109 C0.659898615,94.3387066 9.62324799,103.347293 20.1840956,103.811785 C22.8138445,103.92746 25.4421154,103.989294 28.0703003,104.026302 C28.1571662,110.100804 28.3901608,116.176977 28.7778779,122.260215 C29.4202116,132.337614 38.1860415,141.124637 48.2393574,141.768516 C63.8857648,142.770446 79.4862298,142.770446 95.1326371,141.768413 C105.18585,141.124533 113.951783,132.337511 114.594099,122.260215 C114.642878,121.492563 114.678336,120.725549 114.722405,119.958225 C117.044685,121.019474 119.570982,121.660821 122.196022,121.773963 C129.820065,122.10257 137.434242,122.10257 145.058405,121.77386 C155.619888,121.318637 164.590061,112.326763 165.044294,101.740197 C165.047439,101.666802 165.048178,101.593613 165.051324,101.520322 C166.788643,101.520632 168.525653,101.500233 170.263298,101.458177 C181.175683,101.194333 190.330914,92.0170758 190.594125,81.0784372 C190.677227,77.6204388 190.677433,74.1639393 190.594142,70.7058547 L190.594142,70.7058547 Z"
                        id="Shape-Copy" fill="#5FA3E0"></path>
                    <g id="Group">
                        <path
                            d="M61.4569564,55.1462616 C66.4573861,55.0062594 71.4560284,54.9670981 76.4554785,55.032344 C76.119771,45.9408864 76.1348101,36.8581639 76.5007849,27.7658104 C75.0851999,27.3977835 73.6197709,27.1761852 72.1205168,27.1318724 C67.9313229,27.0078414 63.7443291,27.0023799 59.5549461,27.115212 C50.9259464,27.3476129 43.3505273,33.2661761 40.5233276,41.1631186 C41.2651429,41.189496 42.0067519,41.2046575 42.7487734,41.237289 C51.1805286,41.6080725 58.5887987,47.42738 61.4569564,55.1462616 L61.4569564,55.1462616 Z"
                            id="Shape" fill="#007AFF"></path>
                        <path
                            d="M28.7781021,75.2540946 C29.2174506,68.3595305 33.4604416,62.0705455 39.3156433,58.5785028 C39.2373024,54.8239086 39.2386946,51.0706237 39.3492794,47.3159261 C39.4121859,45.1807122 39.8254265,43.1125014 40.5233276,41.1630841 C33.7700412,40.9230508 27.0222892,40.9283057 20.2668201,41.2075002 C9.70475216,41.6439431 0.71770114,50.6288227 0.254410333,61.2150954 C-0.0745596557,68.7298143 -0.0844425054,76.2354192 0.224538345,83.7510512 C0.659933735,94.3386506 9.62323154,103.347306 20.1841135,103.811711 C22.8138968,103.927421 25.4420989,103.98929 28.070301,104.026263 C27.9330239,94.4387851 28.1660529,84.8550629 28.7781021,75.2540946 L28.7781021,75.2540946 Z"
                            id="Shape" fill="#444E6E"></path>
                        <path
                            d="M39.3156433,58.5785028 C42.0186285,56.9664793 45.0642134,55.9492324 48.2393926,55.7457761 C52.6483467,55.4634114 57.0533476,55.2694828 61.4569736,55.1462443 C58.5888159,47.42738 51.1805458,41.6080553 42.7487734,41.2372546 C42.0067519,41.2046402 41.2651429,41.1894616 40.5233276,41.1630841 C39.8254265,43.1125014 39.4121859,45.1807122 39.3492794,47.3159261 C39.2386946,51.0706237 39.2373024,54.8239258 39.3156433,58.5785028 L39.3156433,58.5785028 Z"
                            id="Shape" fill="#243053"></path>
                        <path
                            d="M190.594194,70.7058331 C190.330898,59.767074 181.175701,50.5897647 170.263093,50.3260245 C166.813548,50.2425504 163.36519,50.2425504 159.915457,50.3260245 C159.901019,50.3264207 159.886582,50.3278163 159.872127,50.3282125 C159.767094,54.776529 159.588274,59.2260343 159.315284,63.6795023 C159.281459,64.230259 159.219343,64.7760711 159.139026,65.3176104 C162.587573,68.9124753 164.823521,73.6772698 165.044278,78.8223753 C165.369105,86.3916237 165.369896,93.9511723 165.051393,101.520231 C166.788626,101.520627 168.52567,101.500211 170.263299,101.458173 C181.175701,101.194346 190.330881,92.0170198 190.594177,81.078364 C190.677279,77.6204345 190.677468,74.1638833 190.594194,70.7058331 L190.594194,70.7058331 Z"
                            id="Shape" fill="#53A2F7"></path>
                        <path
                            d="M165.044278,78.8223753 C164.823521,73.6772698 162.58759,68.9124753 159.139026,65.3176104 C157.733341,74.7882075 149.371006,82.6974341 139.766767,83.3073894 C139.75489,83.3081819 139.74322,83.309767 139.731154,83.3105595 C131.491264,83.8181923 123.263834,84.0259041 115.034635,83.9542146 C115.517296,95.9583927 115.413449,107.946531 114.722474,119.958152 C117.044634,121.019418 119.570983,121.660799 122.196005,121.773924 C129.820083,122.102497 137.434294,122.102497 145.058371,121.773838 C155.619855,121.31865 164.590079,112.326741 165.04426,101.740158 C165.04744,101.666798 165.048214,101.593626 165.051376,101.520248 C165.369879,93.9511895 165.369105,86.391641 165.044278,78.8223753 L165.044278,78.8223753 Z"
                            id="Shape" fill="#007AFF"></path>
                        <path
                            d="M92.2727646,47.386134 C92.3459492,50.1207936 92.3505039,52.8544712 92.3236054,55.5882522 C93.2600699,55.6410933 94.196139,55.6857161 95.1328097,55.7457934 C100.918574,56.1163012 106.274081,59.1869764 109.904043,63.6454063 C113.32332,60.7959331 117.608833,58.9863973 122.195816,58.7886094 C129.405089,58.4778859 136.605441,58.4715457 143.81351,58.7483627 C147.551273,53.802923 153.400545,50.4988649 159.872127,50.3282298 C160.108318,40.3197631 159.929688,30.3182398 159.315284,20.2981781 C158.690172,10.105207 149.899953,1.29383988 139.731343,0.667224217 C125.292637,-0.222511446 110.892913,-0.222321928 96.4542241,0.66732759 C86.2856139,1.29383988 77.4953949,10.1053965 76.8702832,20.298471 C76.7175717,22.7886351 76.6008509,25.2774208 76.5007677,27.7658104 C85.2435147,30.0382354 92.0239058,38.1041246 92.2727646,47.386134 L92.2727646,47.386134 Z"
                            id="Shape" fill="#444E6E"></path>
                        <path
                            d="M76.4554785,55.0323267 C81.7425453,55.1013286 87.030987,55.2897095 92.3236054,55.5882349 C92.3505039,52.8544712 92.3459492,50.1207936 92.2727646,47.3861167 C92.0239058,38.1041073 85.2435147,30.0382182 76.5007677,27.7657759 C76.1348101,36.8581466 76.119771,45.9408692 76.4554785,55.0323267 L76.4554785,55.0323267 Z"
                            id="Shape" fill="#243053"></path>
                        <path
                            d="M143.81351,58.7483454 C144.228521,58.7642994 144.64336,58.770743 145.058577,58.7885922 C150.487081,59.0225781 155.491464,61.515516 159.139026,65.3176104 C159.219343,64.7760711 159.281459,64.2302763 159.315284,63.6795023 C159.588274,59.2260343 159.767094,54.776529 159.872127,50.3282125 C153.400545,50.4988477 147.551273,53.8029058 143.81351,58.7483454 L143.81351,58.7483454 Z"
                            id="Shape" fill="#2E3859"></path>
                        <path
                            d="M145.058577,58.7886094 C144.64336,58.7707602 144.228538,58.7643166 143.81351,58.7483627 C136.605441,58.4715457 129.405072,58.4778859 122.195816,58.7886094 C117.608816,58.9864146 113.32332,60.7959331 109.904043,63.6454063 C112.581299,66.9339066 114.321505,70.9762065 114.5941,75.2538878 C114.779056,78.1555129 114.91812,81.0551566 115.034652,83.9542146 C123.263852,84.0259041 131.491281,83.8181923 139.731171,83.3105595 C139.743237,83.309767 139.754907,83.3081819 139.766784,83.3073894 C149.371023,82.6974341 157.733358,74.7882075 159.139043,65.3176104 C155.491464,61.5155333 150.487081,59.0225953 145.058577,58.7886094 L145.058577,58.7886094 Z"
                            id="Shape" fill="#243053"></path>
                        <path
                            d="M102.210133,101.739952 C101.95079,95.6935842 101.905106,89.6535743 102.056236,83.6097913 C100.189426,83.5245254 98.3222374,83.4257693 96.4542413,83.3105595 C91.2059496,82.9873451 86.3283594,80.4801071 82.747674,76.7315775 C79.6213591,78.8108836 75.9441484,80.077588 72.0503056,80.1824776 C68.9657393,80.2655554 65.882359,80.2623853 62.7985833,80.2170733 C62.76218,81.4225977 62.7313284,82.6280188 62.678511,83.8340429 C62.2152202,94.4203329 53.2281692,103.405109 42.6661013,103.841449 C37.7984111,104.042717 32.9348631,104.094662 28.0703354,104.026263 C28.1571841,110.100783 28.3902131,116.17699 28.7779302,122.260141 C29.4202467,132.33761 38.1861281,141.124598 48.2394097,141.768443 C63.8857827,142.770425 79.4862649,142.770425 95.1326379,141.768357 C105.185919,141.124495 113.951801,132.337507 114.594117,122.260159 C114.642982,121.492559 114.678388,120.725562 114.722508,119.958169 C107.701938,116.749473 102.551358,109.695386 102.210133,101.739952 L102.210133,101.739952 Z"
                            id="Shape" fill="#53A2F7"></path>
                        <path
                            d="M76.4554785,55.0323267 C71.4560284,54.9670808 66.4573861,55.0062594 61.4569564,55.1462443 C62.1811716,57.0952654 62.6207092,59.1633728 62.7083486,61.2977942 C62.9678808,67.6074883 62.9888497,73.9102392 62.7985489,80.217056 C65.8823246,80.2623681 68.965705,80.2655382 72.0502713,80.1824604 C75.9441141,80.0775535 79.621342,78.8108664 82.7476397,76.7315602 C79.3904786,73.2170165 77.1725437,68.6116412 76.8702832,63.6794851 C76.6934575,60.7957264 76.5616976,57.9137423 76.4554785,55.0323267 L76.4554785,55.0323267 Z"
                            id="Shape" fill="#A8D2FF"></path>
                        <path
                            d="M42.6660669,103.841466 C53.2281348,103.405109 62.2151858,94.4203501 62.6784766,83.8340601 C62.731294,82.628036 62.7621457,81.4226149 62.7985489,80.2170905 C61.6941276,80.2009298 60.5895172,80.1985522 59.4849068,80.1658345 C48.7265913,79.8475819 39.6216507,70.6966329 39.3326418,59.9115557 C39.3205762,59.4671875 39.3249246,59.0229054 39.3156261,58.57852 C33.4604244,62.0705628 29.2174334,68.3595477 28.7780849,75.2541118 C28.1660357,84.8550801 27.9330067,94.4388023 28.070301,104.02628 C32.9348459,104.094679 37.7983767,104.042734 42.6660669,103.841466 L42.6660669,103.841466 Z"
                            id="Shape" fill="#A8D2FF"></path>
                        <path
                            d="M62.7083486,61.2978114 C62.6207092,59.16339 62.1811716,57.0952827 61.4569564,55.1462616 C57.0533304,55.2695 52.6483467,55.4634287 48.2393754,55.7457934 C45.0642134,55.9492324 42.0186113,56.9664965 39.3156261,58.57852 C39.3249246,59.0228882 39.3205762,59.4671702 39.3326418,59.9115557 C39.6216507,70.6966329 48.7265913,79.8475819 59.4849068,80.1658345 C60.5895172,80.1985522 61.6941276,80.2009298 62.7985489,80.2170905 C62.9888497,73.9102564 62.9678808,67.6075055 62.7083486,61.2978114 L62.7083486,61.2978114 Z"
                            id="Shape" fill="#79B9FF"></path>
                        <path
                            d="M115.034635,83.9542146 C110.709745,83.9164316 106.384271,83.8074759 102.056219,83.6097741 C101.905088,89.6535571 101.950773,95.6935842 102.210116,101.739934 C102.551358,109.695369 107.701921,116.749456 114.722474,119.958134 C115.413449,107.946531 115.517313,95.9584099 115.034635,83.9542146 L115.034635,83.9542146 Z"
                            id="Shape" fill="#A8D2FF"></path>
                        <path
                            d="M114.5941,75.2538878 C114.321505,70.9762065 112.581316,66.9338894 109.904043,63.6454063 C106.274099,59.1869764 100.918574,56.1163012 95.1328097,55.7457934 C94.196139,55.6857161 93.2600699,55.6410933 92.3236054,55.5882522 C87.030987,55.2897267 81.7425453,55.1013458 76.4554785,55.032344 C76.5616976,57.9137423 76.6934403,60.7957436 76.8703004,63.6795195 C77.1725781,68.6116757 79.3904958,73.2170337 82.7476569,76.7315947 C86.3283594,80.4801243 91.2059325,82.9873623 96.4542241,83.3105767 C98.3222202,83.4257865 100.189408,83.5245254 102.056219,83.6098086 C106.384271,83.8075104 110.709745,83.916466 115.034635,83.954249 C114.91812,81.0551739 114.779056,78.1555301 114.5941,75.2538878 L114.5941,75.2538878 Z"
                            id="Shape" fill="#79B9FF"></path>
                    </g>
                </g>
            </g>
        </g>
    </g>
</svg>